<?xml version="1.0" encoding="UTF-8"?>
<svg width="36px" height="25px" viewBox="0 0 36 25" version="1.1" xmlns="http://www.w3.org/2000/svg" xmlns:xlink="http://www.w3.org/1999/xlink">
    <!-- Generator: Sketch 44.1 (41455) - http://www.bohemiancoding.com/sketch -->
    <title>bankcard</title>
    <desc>Created with Sketch.</desc>
    <defs>
        <rect id="path-1" x="0" y="6" width="36" height="4"></rect>
    </defs>
    <g id="充值提现购买" stroke="none" stroke-width="1" fill="none" fill-rule="evenodd">
        <g id="绑卡" transform="translate(-40.000000, -357.000000)">
            <g id="Group-Copy" transform="translate(0.000000, 208.000000)">
                <g id="bankcard" transform="translate(40.000000, 149.000000)">
                    <path d="M2,0.5 C1.17157288,0.5 0.5,1.17157288 0.5,2 L0.5,23 C0.5,23.8284271 1.17157288,24.5 2,24.5 L34,24.5 C34.8284271,24.5 35.5,23.8284271 35.5,23 L35.5,2 C35.5,1.17157288 34.8284271,0.5 34,0.5 L2,0.5 Z" id="Combined-Shape" stroke="#FD3636"></path>
                    <rect id="Rectangle-9" fill="#FD3636" x="5" y="15" width="10" height="1" rx="0.5"></rect>
                    <rect id="Rectangle-9-Copy" fill="#FD3636" x="5" y="19" width="18" height="1" rx="0.5"></rect>
                    <g id="Rectangle-2">
                        <use fill="#FD3636" fill-rule="evenodd" xlink:href="#path-1"></use>
                        <rect stroke="#FD3636" stroke-width="1" x="0.5" y="6.5" width="35" height="3"></rect>
                    </g>
                </g>
            </g>
        </g>
    </g>
</svg>