<?xml version="1.0" encoding="UTF-8"?>
<svg width="15px" height="7px" viewBox="0 0 15 7" version="1.1" xmlns="http://www.w3.org/2000/svg" xmlns:xlink="http://www.w3.org/1999/xlink">
    <!-- Generator: Sketch 44.1 (41455) - http://www.bohemiancoding.com/sketch -->
    <title>眼睛</title>
    <desc>Created with Sketch.</desc>
    <defs></defs>
    <g id="敲定页" stroke="none" stroke-width="1" fill="none" fill-rule="evenodd">
        <g id="资产首页" transform="translate(-122.000000, -148.000000)" fill="#FFFFFF">
            <path d="M136.906422,148.866471 C137.067373,148.624381 137.013701,148.301545 136.79912,148.113236 C136.557693,147.924927 136.235789,147.97873 136.04799,148.220841 C136.021165,148.247742 133.043557,151.771828 129.502595,151.771828 C126.068935,151.771828 122.957179,148.220841 122.930332,148.19394 C122.742555,147.97873 122.393847,147.95185 122.179223,148.140137 C121.964621,148.328446 121.937795,148.678162 122.125573,148.893372 C122.179223,148.974076 122.82303,149.70041 123.842392,150.507469 L122.47428,151.933236 C122.259678,152.148467 122.286503,152.498162 122.501127,152.686492 C122.554777,152.794076 122.688904,152.8479 122.82303,152.8479 C122.957157,152.8479 123.091283,152.794076 123.198585,152.686492 L124.673976,151.153121 C125.371434,151.637343 126.203018,152.094665 127.1151,152.41748 L126.551769,154.327469 C126.471293,154.623382 126.632245,154.919296 126.927302,155 L127.088253,155 C127.329681,155 127.544305,154.838592 127.597934,154.596481 L128.161265,152.686492 C128.59047,152.767174 129.046522,152.820998 129.502552,152.820998 C129.958582,152.820998 130.414612,152.767174 130.843817,152.686492 L131.40717,154.56958 C131.460821,154.811691 131.702248,154.973099 131.916851,154.973099 C131.970501,154.973099 132.024152,154.973099 132.050977,154.946197 C132.346056,154.865472 132.507007,154.56958 132.426553,154.273666 L131.863222,152.390557 C132.775282,152.067742 133.606866,151.61042 134.304324,151.126198 L135.752912,152.63269 C135.860192,152.740295 135.994318,152.794097 136.128445,152.794097 C136.262571,152.794097 136.396698,152.740295 136.503999,152.63269 C136.718623,152.41748 136.718623,152.094665 136.530824,151.879455 L135.162712,150.453667 C136.262593,149.646629 136.906422,148.866471 136.906422,148.866471" id="眼睛"></path>
        </g>
    </g>
</svg>