<?xml version="1.0" encoding="UTF-8"?>
<svg width="15px" height="9px" viewBox="0 0 15 9" version="1.1" xmlns="http://www.w3.org/2000/svg" xmlns:xlink="http://www.w3.org/1999/xlink">
    <!-- Generator: Sketch 44.1 (41455) - http://www.bohemiancoding.com/sketch -->
    <title>眼睛-3</title>
    <desc>Created with Sketch.</desc>
    <defs>
        <polygon id="path-1" points="0.00109756098 0.0158615702 0.00109756098 8.98142355 14.9853476 8.98142355 14.9853476 0.0158615702"></polygon>
    </defs>
    <g id="敲定页" stroke="none" stroke-width="1" fill="none" fill-rule="evenodd">
        <g id="资产首页" transform="translate(-122.000000, -135.000000)">
            <g id="眼睛-3" transform="translate(122.000000, 132.000000)">
                <g id="Group-3" transform="translate(0.000000, 3.000000)">
                    <mask id="mask-2" fill="white">
                        <use xlink:href="#path-1"></use>
                    </mask>
                    <g id="Clip-2"></g>
                    <path d="M7.49271951,0.463871901 C11.139878,0.463871901 14.114872,3.78963223 14.516378,4.49929339 C14.115311,5.20852686 11.139878,8.53384091 7.49271951,8.53384091 C3.83760366,8.53384091 0.89870122,5.23764669 0.472463415,4.49929339 C0.898262195,3.7605124 3.83667073,0.463871901 7.49271951,0.463871901 L7.49271951,0.463871901 Z M7.49271951,0.0158615702 C3.3544939,0.0158615702 0,4.06470868 0,4.4988657 C0,4.93300413 3.3544939,8.98142355 7.49271951,8.98142355 C11.6308537,8.98142355 14.9853476,4.96526653 14.9853476,4.4988657 C14.9853476,4.03246488 11.6308537,0.0158615702 7.49271951,0.0158615702 Z" id="Fill-1" fill="#FFFFFF" mask="url(#mask-2)"></path>
                </g>
                <path d="M10.1331289,7.64826043 C10.0568372,9.06313991 8.90352907,10.1870764 7.49271951,10.1870764 C6.0325061,10.1870764 4.84820122,8.98319628 4.84820122,7.4988657 C4.84820122,6.0493252 5.97761239,4.86725369 7.39045838,4.81261058 C7.14507075,5.14468805 7,5.55540248 7,6 C7,7.1045695 7.8954305,8 9,8 C9.42068367,8 9.8110312,7.87011557 10.1331289,7.64826043 Z" id="Combined-Shape" fill="#FFFFFF"></path>
                <rect id="Rectangle-4" x="0" y="0" width="15" height="15"></rect>
            </g>
        </g>
    </g>
</svg>