<?xml version="1.0" encoding="UTF-8"?>
<svg width="13px" height="12px" viewBox="0 0 13 12" version="1.1" xmlns="http://www.w3.org/2000/svg" xmlns:xlink="http://www.w3.org/1999/xlink">
    <!-- Generator: Sketch 44.1 (41455) - http://www.bohemiancoding.com/sketch -->
    <title>礼包</title>
    <desc>Created with Sketch.</desc>
    <defs></defs>
    <g id="列表页等" stroke="none" stroke-width="1" fill="none" fill-rule="evenodd">
        <g id="首页" transform="translate(-33.000000, -571.000000)" fill="#5E95FF">
            <g id="Group-12-Copy" transform="translate(18.000000, 557.000000)">
                <g id="Group-8" transform="translate(15.000000, 13.000000)">
                    <path d="M11.909853,4.01452637 L10.456543,4.01452637 L10.7367395,3.75520502 C11.5322589,3.02078458 11.4671777,2.28432519 10.6716584,1.5507467 C9.87605968,0.816417767 8.58704863,0.816417767 7.79152927,1.5507467 L6.56172612,2.68513115 L5.33711803,1.5546453 C4.54744807,0.82571585 3.26698311,0.82571585 2.47729332,1.5546453 C1.68770267,2.28350155 1.75278379,3.01216371 2.54237444,3.74101996 L2.83857255,4.01445315 L1.22040843,4.01445315 C0.582188539,4.01445315 0,4.94518768 0,5.53429812 L0,7.40068698 C0,7.989651 0.517107419,8.46714784 1.15532731,8.46714784 L1.15532731,11.9335391 C1.15532731,12.5225215 1.67243473,13 2.31136844,13 L10.6886316,13 C11.326673,13 11.8446727,12.5225947 11.8446727,11.9335391 L11.8446727,8.46714784 C12.4828133,8.46714784 13,7.98972421 13,7.40068698 L13,5.53437133 C13,4.94526089 12.5479737,4.01452637 11.909853,4.01452637 Z M3.19000244,2.31182861 C3.5735907,1.84255833 4.58148197,1.93069128 4.96581212,2.39996156 L6.53833008,4.04541016 L8.09864066,2.39996156 C8.48511215,1.92722635 9.41760254,1.78295898 9.96368408,2.31182861 C10.5097656,2.84069824 9.88494795,3.57267495 9.49847646,4.04541016 L8.73484075,4.04541016 L4.34901906,4.04541016 L3.57605921,4.04541016 C3.19242037,3.57622237 2.8063636,2.78103703 3.19000244,2.31182861 Z M5.99992585,12 L2.89030806,12 C2.59197799,12 2.08005449,11.7592732 2.08005449,11.4611831 L2.08005449,7.42325325 L1.54049102,7.42325325 C1.39708199,7.42347501 1.25947533,7.36677689 1.15807313,7.26568866 C1.0566524,7.16460042 0.999778196,7.02741981 1.00000065,6.8844548 L1.00000065,5.53879852 C0.999926499,5.39587047 1.05683778,5.25878226 1.15822144,5.15773098 C1.25960509,5.05666123 1.39711907,4.99992615 1.54049102,5.00000007 L6,5.00000007 L6,12 L5.99992585,12 Z M11.9999216,6.88445475 C12,7.02738279 11.9398428,7.16447101 11.8326769,7.26554077 C11.7255109,7.36659204 11.580154,7.4233456 11.428605,7.4232532 L10.8582682,7.4232532 L10.8582682,11.4611831 C10.8582682,11.7592732 10.3171477,12 10.0017244,12 L7,12 L7,5 L11.4286834,5 C11.7441851,5.00007392 11.999902,5.24126269 12,5.53879845 L12,6.88445475 L11.9999216,6.88445475 L11.9999216,6.88445475 Z" id="礼包"></path>
                </g>
            </g>
        </g>
    </g>
</svg>