<?xml version="1.0" encoding="UTF-8"?>
<svg width="40px" height="36px" viewBox="0 0 40 36" version="1.1" xmlns="http://www.w3.org/2000/svg" xmlns:xlink="http://www.w3.org/1999/xlink">
    <!-- Generator: Sketch 44.1 (41455) - http://www.bohemiancoding.com/sketch -->
    <title>公告</title>
    <desc>Created with Sketch.</desc>
    <defs></defs>
    <g id="列表页等" stroke="none" stroke-width="1" fill="none" fill-rule="evenodd">
        <g id="首页" transform="translate(-31.000000, -67.000000)" fill="#FFFFFF">
            <g id="Group-3" transform="translate(31.000000, 62.000000)">
                <path d="M20,6 C19.7772677,5.88498942 19.2182174,5.94491874 19,6 C18.1026611,6.22650146 17.0701219,8.63167883 15,10 C11.2467651,12.480835 10.5,12.8690186 10,13 L4,13 C2.4420166,13 1.52768236,13.378977 1,14 C0.300394679,14.9579003 0,15.9143125 0,17 L0,29 C0,31.2573601 1.80094284,33.088003 4,33 L6,33 C6.86309814,33 7,32.513916 7,32 C7,31.486084 6.73040771,31.0437012 6,31.0437012 L4,31.0437012 C2.95233154,30.9771729 2.10803223,29.897522 2.01318359,29 L2.01318359,17 C2.01318359,16.0795288 2.53674316,15 4,15 L10,15 C10.6666667,15.0742187 12.6666667,14.0742187 16,12 C16.8518555,11.4699196 18.6120085,9.74184158 19,9.04370117 L19,36.8952637 C18.4848022,36.0636597 16.9946289,34.7787476 16,34 C12.1518818,30.9871048 11.2323399,30.3177316 10.9651489,30.190918 C9.74719238,29.612854 8.8449707,31.2287598 9.08117676,31.8343506 C9.31738281,32.4399414 9.50109863,32.4594727 10,32.7543335 C10.5922562,32.9069356 11.5159251,33.6631221 15,36 C16.671814,37.1213379 17.7645874,39.6342163 19,40 C19.0724767,40.0214591 19.3306169,40.0000556 20,40 C20.6890257,39.6593104 21,39.1714506 21,39 L21,7 C21.0000548,6.84188874 20.7041551,6.36359914 20,6 Z M31,8 C30.3739083,7.80799627 29.5559283,7.54601513 29.0285645,8.48754883 C28.8312215,8.86440878 29.0234962,10.0032285 30,10.3820801 C34.9304199,12.2949219 37.9686279,18.3380127 37.9686279,23 C37.9686279,27.6619873 34.6754522,32.3854475 30.3355713,34.3669434 C29.4458008,34.7731934 29.1254049,35.5527434 29.2646484,36.1324463 C29.5428467,37.2906494 30.8457733,36.9490364 31,37 C36.5724314,34.0066878 40,28.5113171 40,23 C39.9999431,16.4878201 36.572773,10.9923944 31,8 Z M33,23 C33,20.6072998 32.5142501,19.0145639 32,18 C30.6993675,16.0771646 29.4328301,14.9074953 28,14 C27.2768983,13.810978 26.6721172,13.5762976 26.196167,14.5018311 C26.0079574,14.8935226 26.4265137,16.026001 27.1378174,16.3500977 C29.8547594,17.5880385 30.9954834,20.4631348 30.9954834,23 C30.9954834,25.5368652 28.9138113,27.4153364 27,28.5970459 C26.196167,29.0933838 26.0090413,29.9723848 26.196167,30.3640137 C26.5756501,31.0960076 26.8475654,31 27,31 C27.5356253,31 27.7409702,30.953518 28,31 C29.4338598,30.0925674 30.7002347,28.9227893 32,27 C32.5144669,25.9854444 33,25.3927002 33,23 Z" id="公告"></path>
            </g>
        </g>
    </g>
</svg>