<?xml version="1.0" encoding="UTF-8"?>
<svg width="20px" height="20px" viewBox="0 0 20 20" version="1.1" xmlns="http://www.w3.org/2000/svg" xmlns:xlink="http://www.w3.org/1999/xlink">
    <!-- Generator: Sketch 44.1 (41455) - http://www.bohemiancoding.com/sketch -->
    <title>默认头像</title>
    <desc>Created with Sketch.</desc>
    <defs></defs>
    <g id="敲定页" stroke="none" stroke-width="1" fill="none" fill-rule="evenodd">
        <g id="资产首页" transform="translate(-15.000000, -32.000000)">
            <g id="默认头像" transform="translate(15.000000, 32.000000)">
                <rect id="Rectangle-11" x="0" y="0" width="20" height="20"></rect>
                <path d="M10,0.5 C4.75331019,0.5 0.5,4.75329585 0.5,9.99997559 C0.5,15.2466762 4.75330661,19.4999756 10,19.4999756 C15.2466934,19.4999756 19.5,15.2466762 19.5,9.99997559 C19.5,4.75329585 15.2466898,0.5 10,0.5 Z" stroke="#FFFFFF"></path>
                <path d="M9.93210647,4.14383691 C11.4398097,4.14383691 12.6624863,5.33061633 12.6624863,6.79356644 C12.6624863,8.25726544 11.4398097,9.44368915 9.93210647,9.44368915 C8.42356132,9.44368915 7.20092292,8.25726544 7.20092292,6.79356644 C7.20092292,5.33061633 8.42354218,4.14383691 9.93210647,4.14383691 Z" id="Path" stroke="#FFFFFF"></path>
                <path d="M14.7785522,13.8573838 L5.22144775,13.8573838 L5.22144775,13.4042512 C5.22144775,11.3553909 7.88898591,9.69430407 9.99998086,9.69430407 C12.1109758,9.69430407 14.7785522,11.3553909 14.7785522,13.4042512 L14.7785522,13.8573838 L14.7785522,13.8573838 Z" id="Path" stroke="#FFFFFF"></path>
            </g>
        </g>
    </g>
</svg>